<mxfile host="app.diagrams.net" agent="Mozilla/5.0 (Windows NT 10.0; Win64; x64) AppleWebKit/537.36 (KHTML, like Gecko) Chrome/141.0.0.0 Safari/537.36" version="28.2.8">
  <diagram name="PÃ¡gina-1" id="sNI_KHcz_Nkh3UXiWXFQ">
    <mxGraphModel grid="1" page="1" gridSize="10" guides="1" tooltips="1" connect="1" arrows="1" fold="1" pageScale="1" pageWidth="827" pageHeight="1169" math="0" shadow="0">
      <root>
        <mxCell id="0" />
        <mxCell id="1" parent="0" />
        <mxCell id="TK6wDM91nvj9rQTm2jiB-15" value="" style="rounded=0;whiteSpace=wrap;html=1;fillColor=none;strokeColor=default;dashed=1;" vertex="1" parent="1">
          <mxGeometry x="-3" y="172.5" width="830" height="475" as="geometry" />
        </mxCell>
        <mxCell id="fCcSkT4Bv77_fzYU9SIP-1" value="" style="rounded=0;whiteSpace=wrap;html=1;fillColor=none;dashed=1;" vertex="1" parent="1">
          <mxGeometry x="40" y="220" width="120" height="380" as="geometry" />
        </mxCell>
        <mxCell id="fCcSkT4Bv77_fzYU9SIP-2" value="" style="image;aspect=fixed;html=1;points=[];align=center;fontSize=12;image=img/lib/azure2/general/Folder_Blank.svg;" vertex="1" parent="1">
          <mxGeometry x="77.75" y="326.94" width="44.5" height="36.12" as="geometry" />
        </mxCell>
        <mxCell id="fCcSkT4Bv77_fzYU9SIP-3" value="CRM" style="text;html=1;whiteSpace=wrap;strokeColor=none;fillColor=none;align=center;verticalAlign=middle;rounded=0;" vertex="1" parent="1">
          <mxGeometry x="70" y="363" width="60" height="30" as="geometry" />
        </mxCell>
        <mxCell id="fCcSkT4Bv77_fzYU9SIP-4" value="" style="image;aspect=fixed;html=1;points=[];align=center;fontSize=12;image=img/lib/azure2/general/Folder_Blank.svg;" vertex="1" parent="1">
          <mxGeometry x="77.75" y="474.94" width="44.5" height="36.12" as="geometry" />
        </mxCell>
        <mxCell id="fCcSkT4Bv77_fzYU9SIP-5" value="ERP" style="text;html=1;whiteSpace=wrap;strokeColor=none;fillColor=none;align=center;verticalAlign=middle;rounded=0;" vertex="1" parent="1">
          <mxGeometry x="70" y="513" width="60" height="30" as="geometry" />
        </mxCell>
        <mxCell id="fCcSkT4Bv77_fzYU9SIP-6" value="Sources" style="text;html=1;whiteSpace=wrap;strokeColor=none;fillColor=none;align=center;verticalAlign=middle;rounded=0;fontSize=18;" vertex="1" parent="1">
          <mxGeometry x="70" y="190" width="60" height="30" as="geometry" />
        </mxCell>
        <mxCell id="fCcSkT4Bv77_fzYU9SIP-7" value="" style="rounded=0;whiteSpace=wrap;html=1;fillColor=#ffe6cc;dashed=1;strokeColor=#d79b00;" vertex="1" parent="1">
          <mxGeometry x="220" y="260" width="160" height="340" as="geometry" />
        </mxCell>
        <mxCell id="fCcSkT4Bv77_fzYU9SIP-8" value="Bronze Layer" style="rounded=1;whiteSpace=wrap;html=1;fillColor=#ffe6cc;strokeColor=#d79b00;" vertex="1" parent="1">
          <mxGeometry x="220" y="220" width="160" height="30" as="geometry" />
        </mxCell>
        <mxCell id="fCcSkT4Bv77_fzYU9SIP-9" value="crm_sales_details" style="rounded=1;whiteSpace=wrap;html=1;fillColor=default;strokeColor=default;fontColor=light-dark(#000000,#FFFFFF);" vertex="1" parent="1">
          <mxGeometry x="235" y="290" width="130" height="30" as="geometry" />
        </mxCell>
        <mxCell id="fCcSkT4Bv77_fzYU9SIP-10" value="crm_cust_info" style="rounded=1;whiteSpace=wrap;html=1;fillColor=default;strokeColor=default;fontColor=light-dark(#000000,#FFFFFF);" vertex="1" parent="1">
          <mxGeometry x="235" y="330" width="130" height="30" as="geometry" />
        </mxCell>
        <mxCell id="fCcSkT4Bv77_fzYU9SIP-11" value="crm_prd_info" style="rounded=1;whiteSpace=wrap;html=1;fillColor=default;strokeColor=default;fontColor=light-dark(#000000,#FFFFFF);" vertex="1" parent="1">
          <mxGeometry x="235" y="370" width="130" height="30" as="geometry" />
        </mxCell>
        <mxCell id="fCcSkT4Bv77_fzYU9SIP-12" value="erp_cust_az12" style="rounded=1;whiteSpace=wrap;html=1;fillColor=default;strokeColor=default;fontColor=light-dark(#000000,#FFFFFF);" vertex="1" parent="1">
          <mxGeometry x="235" y="440" width="130" height="30" as="geometry" />
        </mxCell>
        <mxCell id="fCcSkT4Bv77_fzYU9SIP-13" value="erp_loc_a101" style="rounded=1;whiteSpace=wrap;html=1;fillColor=default;strokeColor=default;fontColor=light-dark(#000000,#FFFFFF);" vertex="1" parent="1">
          <mxGeometry x="235" y="480" width="130" height="30" as="geometry" />
        </mxCell>
        <mxCell id="fCcSkT4Bv77_fzYU9SIP-14" value="erp_px_cat_g1v2" style="rounded=1;whiteSpace=wrap;html=1;fillColor=default;strokeColor=default;fontColor=light-dark(#000000,#FFFFFF);" vertex="1" parent="1">
          <mxGeometry x="235" y="520" width="130" height="30" as="geometry" />
        </mxCell>
        <mxCell id="fCcSkT4Bv77_fzYU9SIP-15" value="" style="endArrow=classic;html=1;rounded=0;entryX=0;entryY=0.5;entryDx=0;entryDy=0;" edge="1" parent="1" source="fCcSkT4Bv77_fzYU9SIP-2" target="fCcSkT4Bv77_fzYU9SIP-10">
          <mxGeometry width="50" height="50" relative="1" as="geometry">
            <mxPoint x="250" y="410" as="sourcePoint" />
            <mxPoint x="300" y="360" as="targetPoint" />
          </mxGeometry>
        </mxCell>
        <mxCell id="fCcSkT4Bv77_fzYU9SIP-16" value="" style="endArrow=classic;html=1;rounded=0;entryX=0;entryY=0.5;entryDx=0;entryDy=0;exitX=0.993;exitY=0.551;exitDx=0;exitDy=0;exitPerimeter=0;" edge="1" parent="1" source="fCcSkT4Bv77_fzYU9SIP-4">
          <mxGeometry width="50" height="50" relative="1" as="geometry">
            <mxPoint x="134.5" y="494.65999999999997" as="sourcePoint" />
            <mxPoint x="234.5" y="494.65999999999997" as="targetPoint" />
          </mxGeometry>
        </mxCell>
        <mxCell id="fCcSkT4Bv77_fzYU9SIP-19" value="" style="edgeStyle=elbowEdgeStyle;elbow=horizontal;endArrow=classic;html=1;curved=0;rounded=0;endSize=8;startSize=8;" edge="1" parent="1" source="fCcSkT4Bv77_fzYU9SIP-2" target="fCcSkT4Bv77_fzYU9SIP-9">
          <mxGeometry width="50" height="50" relative="1" as="geometry">
            <mxPoint x="170" y="373" as="sourcePoint" />
            <mxPoint x="220" y="323" as="targetPoint" />
            <Array as="points">
              <mxPoint x="180" y="345" />
            </Array>
          </mxGeometry>
        </mxCell>
        <mxCell id="fCcSkT4Bv77_fzYU9SIP-20" value="" style="edgeStyle=elbowEdgeStyle;elbow=horizontal;endArrow=classic;html=1;curved=0;rounded=0;endSize=8;startSize=8;entryX=0;entryY=0.5;entryDx=0;entryDy=0;exitX=0.99;exitY=0.502;exitDx=0;exitDy=0;exitPerimeter=0;" edge="1" parent="1" source="fCcSkT4Bv77_fzYU9SIP-2" target="fCcSkT4Bv77_fzYU9SIP-11">
          <mxGeometry width="50" height="50" relative="1" as="geometry">
            <mxPoint x="120" y="410" as="sourcePoint" />
            <mxPoint x="220" y="370" as="targetPoint" />
            <Array as="points">
              <mxPoint x="180" y="370" />
            </Array>
          </mxGeometry>
        </mxCell>
        <mxCell id="fCcSkT4Bv77_fzYU9SIP-21" value="" style="edgeStyle=elbowEdgeStyle;elbow=horizontal;endArrow=classic;html=1;curved=0;rounded=0;endSize=8;startSize=8;entryX=0;entryY=0.5;entryDx=0;entryDy=0;exitX=0.986;exitY=0.539;exitDx=0;exitDy=0;exitPerimeter=0;" edge="1" parent="1" source="fCcSkT4Bv77_fzYU9SIP-4" target="fCcSkT4Bv77_fzYU9SIP-12">
          <mxGeometry width="50" height="50" relative="1" as="geometry">
            <mxPoint x="135" y="464" as="sourcePoint" />
            <mxPoint x="235" y="424" as="targetPoint" />
            <Array as="points">
              <mxPoint x="180" y="480" />
            </Array>
          </mxGeometry>
        </mxCell>
        <mxCell id="fCcSkT4Bv77_fzYU9SIP-22" value="" style="edgeStyle=elbowEdgeStyle;elbow=horizontal;endArrow=classic;html=1;curved=0;rounded=0;endSize=8;startSize=8;exitX=0.976;exitY=0.552;exitDx=0;exitDy=0;exitPerimeter=0;" edge="1" parent="1" source="fCcSkT4Bv77_fzYU9SIP-4" target="fCcSkT4Bv77_fzYU9SIP-14">
          <mxGeometry width="50" height="50" relative="1" as="geometry">
            <mxPoint x="170" y="420" as="sourcePoint" />
            <mxPoint x="271" y="461" as="targetPoint" />
            <Array as="points">
              <mxPoint x="180" y="535" />
            </Array>
          </mxGeometry>
        </mxCell>
        <mxCell id="fCcSkT4Bv77_fzYU9SIP-23" value="" style="rounded=0;whiteSpace=wrap;html=1;fillColor=#f5f5f5;dashed=1;strokeColor=#666666;fontColor=#333333;" vertex="1" parent="1">
          <mxGeometry x="420" y="260" width="160" height="340" as="geometry" />
        </mxCell>
        <mxCell id="fCcSkT4Bv77_fzYU9SIP-24" value="Silver Layer" style="rounded=1;whiteSpace=wrap;html=1;fillColor=#f5f5f5;strokeColor=#666666;fontColor=#333333;" vertex="1" parent="1">
          <mxGeometry x="420" y="220" width="160" height="30" as="geometry" />
        </mxCell>
        <mxCell id="fCcSkT4Bv77_fzYU9SIP-25" value="crm_sales_details" style="rounded=1;whiteSpace=wrap;html=1;fillColor=default;strokeColor=default;fontColor=light-dark(#000000,#FFFFFF);" vertex="1" parent="1">
          <mxGeometry x="435" y="290" width="130" height="30" as="geometry" />
        </mxCell>
        <mxCell id="fCcSkT4Bv77_fzYU9SIP-26" value="crm_cust_info" style="rounded=1;whiteSpace=wrap;html=1;fillColor=default;strokeColor=default;fontColor=light-dark(#000000,#FFFFFF);" vertex="1" parent="1">
          <mxGeometry x="435" y="330" width="130" height="30" as="geometry" />
        </mxCell>
        <mxCell id="fCcSkT4Bv77_fzYU9SIP-27" value="crm_prd_info" style="rounded=1;whiteSpace=wrap;html=1;fillColor=default;strokeColor=default;fontColor=light-dark(#000000,#FFFFFF);" vertex="1" parent="1">
          <mxGeometry x="435" y="370" width="130" height="30" as="geometry" />
        </mxCell>
        <mxCell id="fCcSkT4Bv77_fzYU9SIP-28" value="erp_cust_az12" style="rounded=1;whiteSpace=wrap;html=1;fillColor=default;strokeColor=default;fontColor=light-dark(#000000,#FFFFFF);" vertex="1" parent="1">
          <mxGeometry x="435" y="440" width="130" height="30" as="geometry" />
        </mxCell>
        <mxCell id="fCcSkT4Bv77_fzYU9SIP-29" value="erp_loc_a101" style="rounded=1;whiteSpace=wrap;html=1;fillColor=default;strokeColor=default;fontColor=light-dark(#000000,#FFFFFF);" vertex="1" parent="1">
          <mxGeometry x="435" y="480" width="130" height="30" as="geometry" />
        </mxCell>
        <mxCell id="fCcSkT4Bv77_fzYU9SIP-30" value="erp_px_cat_g1v2" style="rounded=1;whiteSpace=wrap;html=1;fillColor=default;strokeColor=default;fontColor=light-dark(#000000,#FFFFFF);" vertex="1" parent="1">
          <mxGeometry x="435" y="520" width="130" height="30" as="geometry" />
        </mxCell>
        <mxCell id="fCcSkT4Bv77_fzYU9SIP-31" value="" style="endArrow=classic;html=1;rounded=0;entryX=0;entryY=0.5;entryDx=0;entryDy=0;exitX=1;exitY=0.5;exitDx=0;exitDy=0;" edge="1" parent="1" source="fCcSkT4Bv77_fzYU9SIP-9" target="fCcSkT4Bv77_fzYU9SIP-25">
          <mxGeometry width="50" height="50" relative="1" as="geometry">
            <mxPoint x="380" y="360" as="sourcePoint" />
            <mxPoint x="430" y="310" as="targetPoint" />
          </mxGeometry>
        </mxCell>
        <mxCell id="fCcSkT4Bv77_fzYU9SIP-32" value="" style="endArrow=classic;html=1;rounded=0;entryX=0;entryY=0.5;entryDx=0;entryDy=0;exitX=1;exitY=0.5;exitDx=0;exitDy=0;" edge="1" parent="1" source="fCcSkT4Bv77_fzYU9SIP-10" target="fCcSkT4Bv77_fzYU9SIP-26">
          <mxGeometry width="50" height="50" relative="1" as="geometry">
            <mxPoint x="460" y="420" as="sourcePoint" />
            <mxPoint x="530" y="420" as="targetPoint" />
          </mxGeometry>
        </mxCell>
        <mxCell id="fCcSkT4Bv77_fzYU9SIP-33" value="" style="endArrow=classic;html=1;rounded=0;entryX=0;entryY=0.5;entryDx=0;entryDy=0;exitX=1;exitY=0.5;exitDx=0;exitDy=0;" edge="1" parent="1" source="fCcSkT4Bv77_fzYU9SIP-11" target="fCcSkT4Bv77_fzYU9SIP-27">
          <mxGeometry width="50" height="50" relative="1" as="geometry">
            <mxPoint x="420" y="430" as="sourcePoint" />
            <mxPoint x="490" y="430" as="targetPoint" />
          </mxGeometry>
        </mxCell>
        <mxCell id="fCcSkT4Bv77_fzYU9SIP-34" value="" style="endArrow=classic;html=1;rounded=0;exitX=1;exitY=0.5;exitDx=0;exitDy=0;" edge="1" parent="1" source="fCcSkT4Bv77_fzYU9SIP-12" target="fCcSkT4Bv77_fzYU9SIP-28">
          <mxGeometry width="50" height="50" relative="1" as="geometry">
            <mxPoint x="410" y="480" as="sourcePoint" />
            <mxPoint x="480" y="480" as="targetPoint" />
          </mxGeometry>
        </mxCell>
        <mxCell id="fCcSkT4Bv77_fzYU9SIP-35" value="" style="endArrow=classic;html=1;rounded=0;exitX=1;exitY=0.5;exitDx=0;exitDy=0;entryX=0;entryY=0.5;entryDx=0;entryDy=0;" edge="1" parent="1" source="fCcSkT4Bv77_fzYU9SIP-13" target="fCcSkT4Bv77_fzYU9SIP-29">
          <mxGeometry width="50" height="50" relative="1" as="geometry">
            <mxPoint x="390" y="510" as="sourcePoint" />
            <mxPoint x="460" y="510" as="targetPoint" />
          </mxGeometry>
        </mxCell>
        <mxCell id="fCcSkT4Bv77_fzYU9SIP-36" value="" style="endArrow=classic;html=1;rounded=0;exitX=1;exitY=0.5;exitDx=0;exitDy=0;entryX=0;entryY=0.5;entryDx=0;entryDy=0;" edge="1" parent="1" source="fCcSkT4Bv77_fzYU9SIP-14" target="fCcSkT4Bv77_fzYU9SIP-30">
          <mxGeometry width="50" height="50" relative="1" as="geometry">
            <mxPoint x="410" y="530" as="sourcePoint" />
            <mxPoint x="480" y="530" as="targetPoint" />
          </mxGeometry>
        </mxCell>
        <mxCell id="TK6wDM91nvj9rQTm2jiB-1" value="" style="rounded=0;whiteSpace=wrap;html=1;fillColor=#fff2cc;dashed=1;strokeColor=#d6b656;" vertex="1" parent="1">
          <mxGeometry x="620" y="260" width="160" height="340" as="geometry" />
        </mxCell>
        <mxCell id="TK6wDM91nvj9rQTm2jiB-2" value="Gold Layer" style="rounded=1;whiteSpace=wrap;html=1;fillColor=#fff2cc;strokeColor=#d6b656;" vertex="1" parent="1">
          <mxGeometry x="620" y="220" width="160" height="30" as="geometry" />
        </mxCell>
        <mxCell id="TK6wDM91nvj9rQTm2jiB-3" value="fact_sales" style="rounded=1;whiteSpace=wrap;html=1;fillColor=default;strokeColor=default;fontColor=light-dark(#000000,#FFFFFF);" vertex="1" parent="1">
          <mxGeometry x="635" y="330" width="130" height="30" as="geometry" />
        </mxCell>
        <mxCell id="TK6wDM91nvj9rQTm2jiB-4" value="dim_customers" style="rounded=1;whiteSpace=wrap;html=1;fillColor=default;strokeColor=default;fontColor=light-dark(#000000,#FFFFFF);" vertex="1" parent="1">
          <mxGeometry x="635" y="404.94" width="130" height="30" as="geometry" />
        </mxCell>
        <mxCell id="TK6wDM91nvj9rQTm2jiB-5" value="dim_products" style="rounded=1;whiteSpace=wrap;html=1;fillColor=default;strokeColor=default;fontColor=light-dark(#000000,#FFFFFF);" vertex="1" parent="1">
          <mxGeometry x="635" y="483" width="130" height="30" as="geometry" />
        </mxCell>
        <mxCell id="TK6wDM91nvj9rQTm2jiB-9" value="" style="endArrow=classic;html=1;rounded=0;entryX=0;entryY=0.5;entryDx=0;entryDy=0;exitX=1;exitY=0.5;exitDx=0;exitDy=0;" edge="1" parent="1" source="fCcSkT4Bv77_fzYU9SIP-25" target="TK6wDM91nvj9rQTm2jiB-3">
          <mxGeometry width="50" height="50" relative="1" as="geometry">
            <mxPoint x="410" y="340" as="sourcePoint" />
            <mxPoint x="480" y="340" as="targetPoint" />
          </mxGeometry>
        </mxCell>
        <mxCell id="TK6wDM91nvj9rQTm2jiB-10" value="" style="endArrow=classic;html=1;rounded=0;entryX=0;entryY=0.5;entryDx=0;entryDy=0;exitX=1;exitY=0.5;exitDx=0;exitDy=0;jumpStyle=gap;" edge="1" parent="1" source="fCcSkT4Bv77_fzYU9SIP-26" target="TK6wDM91nvj9rQTm2jiB-4">
          <mxGeometry width="50" height="50" relative="1" as="geometry">
            <mxPoint x="850" y="350" as="sourcePoint" />
            <mxPoint x="920" y="425" as="targetPoint" />
          </mxGeometry>
        </mxCell>
        <mxCell id="TK6wDM91nvj9rQTm2jiB-11" value="" style="endArrow=classic;html=1;rounded=0;entryX=0;entryY=0.5;entryDx=0;entryDy=0;exitX=1;exitY=0.5;exitDx=0;exitDy=0;jumpStyle=gap;" edge="1" parent="1" source="fCcSkT4Bv77_fzYU9SIP-27" target="TK6wDM91nvj9rQTm2jiB-5">
          <mxGeometry width="50" height="50" relative="1" as="geometry">
            <mxPoint x="600" y="400" as="sourcePoint" />
            <mxPoint x="670" y="475" as="targetPoint" />
          </mxGeometry>
        </mxCell>
        <mxCell id="TK6wDM91nvj9rQTm2jiB-12" value="" style="endArrow=classic;html=1;rounded=0;entryX=0;entryY=0.5;entryDx=0;entryDy=0;exitX=1;exitY=0.5;exitDx=0;exitDy=0;jumpStyle=gap;" edge="1" parent="1" source="fCcSkT4Bv77_fzYU9SIP-28" target="TK6wDM91nvj9rQTm2jiB-4">
          <mxGeometry width="50" height="50" relative="1" as="geometry">
            <mxPoint x="590" y="480" as="sourcePoint" />
            <mxPoint x="660" y="555" as="targetPoint" />
          </mxGeometry>
        </mxCell>
        <mxCell id="TK6wDM91nvj9rQTm2jiB-13" value="" style="endArrow=classic;html=1;rounded=0;entryX=0;entryY=0.5;entryDx=0;entryDy=0;exitX=1;exitY=0.5;exitDx=0;exitDy=0;jumpStyle=gap;" edge="1" parent="1" source="fCcSkT4Bv77_fzYU9SIP-29" target="TK6wDM91nvj9rQTm2jiB-4">
          <mxGeometry width="50" height="50" relative="1" as="geometry">
            <mxPoint x="610" y="545" as="sourcePoint" />
            <mxPoint x="680" y="510" as="targetPoint" />
          </mxGeometry>
        </mxCell>
        <mxCell id="TK6wDM91nvj9rQTm2jiB-14" value="" style="endArrow=classic;html=1;rounded=0;entryX=0;entryY=0.5;entryDx=0;entryDy=0;exitX=1;exitY=0.5;exitDx=0;exitDy=0;jumpStyle=gap;" edge="1" parent="1" source="fCcSkT4Bv77_fzYU9SIP-30" target="TK6wDM91nvj9rQTm2jiB-5">
          <mxGeometry width="50" height="50" relative="1" as="geometry">
            <mxPoint x="590" y="605" as="sourcePoint" />
            <mxPoint x="660" y="530" as="targetPoint" />
          </mxGeometry>
        </mxCell>
      </root>
    </mxGraphModel>
  </diagram>
</mxfile>
